<svg width="281" height="260" viewBox="0 0 281 260" fill="none" xmlns="http://www.w3.org/2000/svg">
<path d="M205.085 256.673C223.925 255.38 238.148 239.05 236.854 220.198C235.56 201.347 219.238 187.113 200.399 188.407C181.56 189.7 167.336 206.03 168.63 224.882C169.924 243.733 186.246 257.966 205.085 256.673Z" fill="white"/>
<path d="M202.802 255.115C221.641 253.821 235.865 237.491 234.571 218.64C233.277 199.788 216.955 185.555 198.116 186.848C179.276 188.141 165.053 204.472 166.347 223.323C167.641 242.174 183.963 256.408 202.802 255.115Z" stroke="#184B69" stroke-width="0.5" stroke-miterlimit="10"/>
<path d="M223.001 201.131L202.732 202.523L202.47 206.967L179.4 208.55L177.635 238.414L220.882 235.445L223.001 201.131Z" fill="#98CBEA"/>
<path d="M224.285 202.048L204.017 203.439L203.754 207.883L180.685 209.467L178.919 239.33L222.167 236.362L224.285 202.048Z" stroke="#184B69" stroke-width="0.5" stroke-miterlimit="10"/>
<path d="M133.62 192.641C160.256 192.641 181.85 171.034 181.85 144.38C181.85 117.727 160.256 96.1203 133.62 96.1203C106.983 96.1203 85.3899 117.727 85.3899 144.38C85.3899 171.034 106.983 192.641 133.62 192.641Z" fill="white"/>
<path d="M130.557 190.227C157.194 190.227 178.787 168.62 178.787 141.966C178.787 115.313 157.194 93.7062 130.557 93.7062C103.921 93.7062 82.3276 115.313 82.3276 141.966C82.3276 168.62 103.921 190.227 130.557 190.227Z" stroke="#184B69" stroke-width="0.5" stroke-miterlimit="10"/>
<path d="M159.556 127.085C148.107 104.809 131.888 127.403 131.888 127.403C131.888 127.403 115.668 104.809 104.219 127.085C90.6495 153.487 128.707 174.183 128.707 174.183C128.707 174.183 173.126 153.487 159.556 127.085Z" fill="#3981AC"/>
<path d="M156.972 125.866C145.523 103.59 129.304 126.184 129.304 126.184C129.304 126.184 113.084 103.59 101.635 125.866C88.0654 152.269 126.123 172.964 126.123 172.964C126.123 172.964 170.542 152.269 156.972 125.866Z" stroke="#184B69" stroke-width="0.5" stroke-miterlimit="10"/>
<path d="M90.5205 152.05L112.116 150.872L115.258 127.691L124.288 162.266L134.497 135.941L140.78 154.015L148.633 129.262L156.486 156.765L168.265 155.979" stroke="#184B69" stroke-width="0.5" stroke-miterlimit="10"/>
<path d="M50.1743 252.784C69.058 252.784 84.3664 237.466 84.3664 218.571C84.3664 199.675 69.058 184.357 50.1743 184.357C31.2905 184.357 15.9822 199.675 15.9822 218.571C15.9822 237.466 31.2905 252.784 50.1743 252.784Z" fill="#3981AC"/>
<path d="M60.5034 192.391L37.7381 192.391C35.9893 192.391 34.5089 193.682 34.2708 195.416L28.8727 234.728C28.5838 236.831 30.2176 238.706 32.3399 238.706L57.781 238.706C59.5299 238.706 61.0103 237.415 61.2484 235.681L66.2345 199.163L60.5034 192.391Z" fill="white"/>
<path d="M48.0033 251.073C66.8871 251.073 82.1954 235.755 82.1954 216.859C82.1954 197.964 66.8871 182.646 48.0033 182.646C29.1195 182.646 13.8112 197.964 13.8112 216.859C13.8112 235.755 29.1195 251.073 48.0033 251.073Z" stroke="#184B69" stroke-width="0.5" stroke-miterlimit="10"/>
<path d="M60.9245 193.237L38.1592 193.237C36.4104 193.237 34.93 194.529 34.692 196.262L29.2938 235.574C29.0048 237.678 30.6388 239.553 32.7611 239.553L58.2022 239.553C59.951 239.553 61.4314 238.261 61.6694 236.528L66.6557 200.009L60.9245 193.237Z" stroke="#184B69" stroke-width="0.5" stroke-miterlimit="10"/>
<path d="M37.1823 206.444L59.0544 206.444" stroke="#184B69" stroke-width="0.5" stroke-miterlimit="10"/>
<path d="M37.0292 212.371L56.4712 212.371" stroke="#184B69" stroke-width="0.5" stroke-miterlimit="10"/>
<path d="M37.1823 218.147L50.1733 218.571" stroke="#184B69" stroke-width="0.5" stroke-miterlimit="10"/>
<path d="M60.4222 193.525L59.9518 196.29C59.5683 198.545 61.358 200.581 63.642 200.487L66.6497 200.364" stroke="#184B69" stroke-width="0.5" stroke-miterlimit="10"/>
<path d="M246.71 162.356C265.283 162.356 280.339 147.29 280.339 128.705C280.339 110.121 265.283 95.0547 246.71 95.0547C228.137 95.0547 213.08 110.121 213.08 128.705C213.08 147.29 228.137 162.356 246.71 162.356Z" fill="white"/>
<path d="M258.567 102.956L234.955 102.956C233.141 102.956 231.605 104.226 231.358 105.931L225.759 144.596C225.459 146.665 227.154 148.509 229.355 148.509L255.744 148.509C257.558 148.509 259.093 147.239 259.34 145.533L264.512 109.616L258.567 102.956Z" fill="#4890BA"/>
<path d="M244.574 160.672C263.147 160.672 278.204 145.607 278.204 127.022C278.204 108.437 263.147 93.3714 244.574 93.3714C226.001 93.3714 210.945 108.437 210.945 127.022C210.945 145.607 226.001 160.672 244.574 160.672Z" stroke="#184B69" stroke-width="0.5" stroke-miterlimit="10"/>
<path d="M257.282 103.788L234.892 103.788C233.172 103.788 231.716 105.058 231.482 106.764L226.172 145.428C225.888 147.497 227.495 149.341 229.582 149.341L254.605 149.341C256.325 149.341 257.781 148.071 258.015 146.366L262.919 110.448L257.282 103.788Z" stroke="#184B69" stroke-width="0.5" stroke-miterlimit="10"/>
<path d="M233.929 116.777L255.441 116.777" stroke="#184B69" stroke-width="0.5" stroke-miterlimit="10"/>
<path d="M233.784 122.607L252.906 122.607" stroke="#184B69" stroke-width="0.5" stroke-miterlimit="10"/>
<path d="M233.929 128.288L246.706 128.705" stroke="#184B69" stroke-width="0.5" stroke-miterlimit="10"/>
<path d="M256.789 104.071L256.326 106.79C255.949 109.008 257.709 111.01 259.956 110.919L262.914 110.798" stroke="#184B69" stroke-width="0.5" stroke-miterlimit="10"/>
<path d="M63.0618 81.2479C80.9063 81.2479 95.372 66.773 95.372 48.9173C95.372 31.0617 80.9063 16.5867 63.0618 16.5867C45.2173 16.5867 30.7515 31.0617 30.7515 48.9173C30.7515 66.773 45.2173 81.2479 63.0618 81.2479Z" fill="white"/>
<path d="M61.0097 79.6311C78.8542 79.6311 93.32 65.1562 93.32 47.3005C93.32 29.4448 78.8542 14.9698 61.0097 14.9698C43.1652 14.9698 28.6995 29.4448 28.6995 47.3005C28.6995 65.1562 43.1652 79.6311 61.0097 79.6311Z" stroke="#184B69" stroke-width="0.5" stroke-miterlimit="10"/>
<path d="M44.8338 53.2631C44.8338 61.9986 51.9109 69.0802 60.6409 69.0802C69.371 69.0802 76.4482 61.9986 76.4482 53.2631C76.4482 44.5275 60.6409 24.4351 60.6409 24.4351C60.6409 24.4351 44.8338 44.5275 44.8338 53.2631Z" fill="#98CBEA"/>
<path d="M47.308 53.573C47.308 62.3086 54.3852 69.3902 63.1152 69.3902C71.8453 69.3902 78.9223 62.3086 78.9223 53.573C78.9223 44.8375 63.1152 24.745 63.1152 24.745C63.1152 24.745 47.308 44.8374 47.308 53.573Z" stroke="#184B69" stroke-width="0.5" stroke-miterlimit="10"/>
<path d="M28.003 157.201C41.9365 157.201 53.2317 145.898 53.2317 131.956C53.2317 118.014 41.9365 106.712 28.003 106.712C14.0696 106.712 2.77429 118.014 2.77429 131.956C2.77429 145.898 14.0696 157.201 28.003 157.201Z" fill="#98CBEA"/>
<path d="M26.4018 155.938C40.3352 155.938 51.6305 144.636 51.6305 130.693C51.6305 116.751 40.3352 105.449 26.4018 105.449C12.4683 105.449 1.17303 116.751 1.17303 130.693C1.17303 144.636 12.4683 155.938 26.4018 155.938Z" stroke="#184B69" stroke-width="0.5" stroke-miterlimit="10"/>
<path d="M31.8429 126.744C34.0152 125.144 35.4309 122.576 35.4309 119.67C35.4309 114.818 31.4995 110.884 26.6502 110.884C21.8008 110.884 17.8695 114.818 17.8695 119.67C17.8695 122.576 19.2852 125.144 21.4574 126.744C15.0076 129.452 10.3598 137.06 10.3598 146.029L42.9406 146.029C42.9406 137.06 38.2926 129.452 31.8429 126.744Z" fill="white"/>
<path d="M31.3576 127.418C33.5299 125.818 34.9456 123.25 34.9456 120.344C34.9456 115.492 31.0143 111.558 26.1649 111.558C21.3156 111.558 17.3843 115.492 17.3843 120.344C17.3843 123.25 18.8 125.818 20.9722 127.418C14.5223 130.126 9.87457 137.734 9.87457 146.703L42.4554 146.703C42.4554 137.734 37.8074 130.126 31.3576 127.418Z" stroke="#184B69" stroke-width="0.5" stroke-miterlimit="10"/>
<path d="M172.909 71.3695C191.792 71.3695 207.101 56.0515 207.101 37.1559C207.101 18.2602 191.792 2.94221 172.909 2.94221C154.025 2.94221 138.716 18.2602 138.716 37.1559C138.716 56.0515 154.025 71.3695 172.909 71.3695Z" fill="#3981AC"/>
<path d="M170.738 69.6582C189.622 69.6582 204.93 54.3402 204.93 35.4446C204.93 16.5489 189.622 1.23091 170.738 1.23091C151.854 1.23091 136.546 16.5489 136.546 35.4446C136.546 54.3402 151.854 69.6582 170.738 69.6582Z" stroke="#184B69" stroke-width="0.5" stroke-miterlimit="10"/>
<path d="M199.503 37.8771C199.547 37.4577 199.571 37.0323 199.574 36.6017C199.615 29.6212 193.95 23.8558 186.974 23.7839C184.881 23.7623 182.903 24.2472 181.154 25.1222C179.488 20.0268 174.699 16.3457 169.05 16.3457C163.392 16.3457 158.596 20.0395 156.938 25.1485C151.157 26.3527 146.813 31.4795 146.813 37.6219C146.813 37.6312 146.813 37.6404 146.813 37.6497C146.816 39.1282 148.036 40.3159 149.514 40.3159L196.814 40.3159C198.203 40.3159 199.356 39.2599 199.503 37.8771Z" fill="white"/>
<path d="M200.269 38.3554C200.314 37.936 200.338 37.5106 200.34 37.0801C200.382 30.0995 194.717 24.3341 187.741 24.2622C185.648 24.2407 183.67 24.7255 181.921 25.6005C180.255 20.5051 175.466 16.824 169.817 16.824C164.158 16.824 159.363 20.5178 157.705 25.6269C151.923 26.8311 147.579 31.9579 147.579 38.1002C147.579 38.1095 147.579 38.1187 147.579 38.128C147.583 39.6065 148.803 40.7943 150.281 40.7943L197.58 40.7943C198.97 40.7943 200.123 39.7383 200.269 38.3554Z" stroke="#184B69" stroke-width="0.5" stroke-miterlimit="10"/>
<path d="M180.86 44.3528L173.615 33.3812L166.369 44.3528L170.116 44.3528L170.116 58.332L177.113 58.332L177.113 44.3528L180.86 44.3528Z" fill="#98CBEA"/>
<path d="M180.088 44.7383L172.843 33.7667L165.597 44.7383L169.345 44.7383L169.345 58.7175L176.341 58.7175L176.341 44.7383L180.088 44.7383Z" stroke="#CFDDE2" stroke-width="0.5" stroke-miterlimit="10"/>
<line x1="211.052" y1="128.749" x2="178.427" y2="135.749" stroke="#184B69" stroke-width="0.5"/>
<line x1="163.55" y1="177.138" x2="180.175" y2="193.346" stroke="#184B69" stroke-width="0.5"/>
<line x1="98.1397" y1="177.962" x2="73.6396" y2="194.462" stroke="#184B69" stroke-width="0.5"/>
<line x1="82.3367" y1="140.626" x2="50.8992" y2="135.751" stroke="#184B69" stroke-width="0.5"/>
<line x1="82.5743" y1="71.4783" x2="105.012" y2="101.103" stroke="#184B69" stroke-width="0.5"/>
<line x1="163.352" y1="68.7973" x2="149.852" y2="97.7973" stroke="#184B69" stroke-width="0.5"/>
</svg>
